<svg width="99" height="39" viewBox="0 0 99 39" fill="none" xmlns="http://www.w3.org/2000/svg">
<path d="M14.5357 18.1357C16.9584 17.2895 18.8009 15.0239 18.8077 12.2941C18.8146 8.90929 16.0439 6.13863 12.6591 6.1318H11.2464L0.0409457 6.11133V6.49349L11.2464 6.50714C14.4402 6.51396 17.013 9.09354 17.0061 12.2873C16.9993 15.5152 14.4197 18.0948 11.226 18.088L0.0204729 18.0743V18.3132V18.4565L0 32.0368V32.3848V32.4258L12.4407 32.4463H13.8533C17.8182 32.4531 21.0529 29.2661 21.0598 25.3012C21.0666 21.6093 18.1526 18.5247 14.5357 18.1357ZM12.4407 32.0573L0.388985 32.0368L0.409458 18.4565L11.2328 18.4701H12.468C16.2009 18.4769 19.2377 21.5206 19.2309 25.2876C19.2172 29.0273 16.1736 32.0641 12.4407 32.0573Z" fill="black"/>
<path d="M80.7382 6.26474L80.7041 30.7708L67.5059 9.31519L67.4991 9.30837C64.1074 3.78752 57.8632 0.0136842 50.0562 3.56094e-05C38.1137 -0.0204373 29.7812 8.78972 29.7607 19.2241C29.7539 24.1307 31.5692 28.6757 34.722 32.122L24.7176 32.1083L24.7585 6.18284H23.1412L23.107 32.4905H24.7244L35.0973 32.5041C38.6801 36.2029 43.8529 38.5505 50.0016 38.5573C61.9509 38.5778 70.2765 29.7676 70.297 19.2787C70.297 18.3642 70.2288 17.4634 70.1059 16.5831L79.9329 32.5724H81.0862L81.1272 6.25791L80.7382 6.26474ZM50.0016 38.1683C40.0654 38.1546 31.8285 29.3308 31.8421 19.2241C31.8558 9.17871 40.0108 0.382196 50.0562 0.395844C60.1015 0.409493 68.2293 9.2333 68.2156 19.2787C68.202 29.3854 59.9923 38.1819 50.0016 38.1683Z" fill="black"/>
<path d="M84.8259 6.49349L84.8123 18.1562L98.9864 18.1767V18.5247L84.8055 18.5042L84.785 32.0368L98.9659 32.0573V32.4463L84.785 32.419H83.1745L83.2086 6.11133H84.0207L99 6.1318V6.51396L84.8259 6.49349Z" fill="black"/>
</svg>
